# xmcd
#
# Track frame offsets:
#	150
#	12492
#	27117
#	36586
#	50467
#	62634
#	78655
#	93359
#	106358
#	122462
#	136232
#	149032
#	163700
#	179386
#	197620
#
# Disc length: 2870 seconds
#
# Revision: 1
# Processed by: cddbd v1.5.2PL0 Copyright (c) Steve Scherf et al.
# Submitted via: audiograbber 1.83.01
#
DISCID=d10b340f
DTITLE=Various Artist - Die 60 größten Kinderhits - CD2
DYEAR=2014
DGENRE=kids
TTITLE0=Das kleine Küken piept
TTITLE1=Ich bin dein Gummibär
TTITLE2=Schnappi
TTITLE3=I sing a Liad für di
TTITLE4=Ein bisschen Spaß muss sein
TTITLE5=Das rote Pferd
TTITLE6=Er hat ein knallrotes Gummiboot
TTITLE7=Kuschel-Song 
TTITLE8=So a schöner Tag (Fliegerlied)
TTITLE9=Die Hände zum Himmel
TTITLE10=Party ohne Eltern
TTITLE11=Mein Bonnie (Sha la la)
TTITLE12=Hörst du die Regenwürmer husten
TTITLE13=Major Tom
TTITLE14=Que Sera Sera
EXTD=
EXTT0=
EXTT1=
EXTT2=
EXTT3=
EXTT4=
EXTT5=
EXTT6=
EXTT7=
EXTT8=
EXTT9=
EXTT10=
EXTT11=
EXTT12=
EXTT13=
EXTT14=
PLAYORDER=
